<svg width="257" height="371" fill="none" xmlns="http://www.w3.org/2000/svg"><path d="M232.519 232.715l-6.235-6.796-18.411 17.278 12.428 34.131-31.598 3.43-1.98 41.588-22.246-5.454-34.905 39.904-35.306-41.758-15.778 6.668-7.5-39.222-27.027 4.538 9.08-41.95-31.262-15.638-4.065 8.331 24.836 12.399-10.45 48.235 31.578-5.284 7.941 41.545 20.013-8.458 37.833 44.74 38.213-43.717 27.681 6.796 2.127-44.89 35.496-3.856-14.388-39.478 13.924-13.082zM49.295 141.636L66.02 183.18l42.742 6.882-1.454-24.245-58.014-24.181zM72.55 174.85l-6.51-16.192 32.463 13.529.421 6.903-26.353-4.24h-.02z" fill="#fff"/><path d="M151.755 165.818l-5.119 75.803h-34.274l-7.836 7.968.231 17.108 16.495 12.57h16.515l16.494-12.57v-2.152l5.162-75.931 33.62-5.411 16.726-41.545-57.993 24.16h-.021zm-17.063 104.181h-10.386l-10.448-7.968-.106-8.671 2.423-2.471h26.648l2.422 2.471-.105 8.65-10.448 7.968v.021zm51.779-95.127l-26.417 4.261.464-6.924 32.483-13.529-6.509 16.192h-.021z" fill="#fff"/><path d="M140.338 287.767h-21.655l-19.212-7.755-20.392-45.188-8.342 3.835 21.909 48.597 24.288 9.779h25.173l23.973-9.652 28.839-47.254-2.654-23.138-9.016-18.62-8.237 4.069 8.321 17.215 2.106 18.343-25.573 41.907-19.528 7.862z" fill="#fff"/><path d="M257 170.121l-20.265-33.598-3.518-2.429 6.025-12.144-7.415-6.988 12.154-19.473-25.573-91.931-49.167 58.482-39.793-8.5-39.603 9.821L40.488.15 17.527 94.105l9.605 21.006-14.282 8.565 11.881 16.98L0 158.126l25.068 24.544L.211 209.067l32.44 19.643 4.72-7.968-22.604-13.678 23.214-24.671-23.614-23.095 27.153-19.175-5.245-7.605-4.024 2.833-6.172-8.82 24.542-14.722-4.698-7.989-10.849 6.519-7.857-17.172 17.695-72.394 3.012 3.856-.231-.043-11.165 58.12 12.892 15.51 7.015-5.986-10.07-12.102 8.869-46.125L86.306 73.8l43.289-10.76 35.98 7.692-2.485 12.442 8.995 1.832 3.138-15.766 28.902-34.365 7.352 46.765-10.743 16.021 7.583 5.22 12.787-19.068-9.163-58.248 2.317-2.727 19.781 71.202-9.038 14.487-3.56-3.345-6.256 6.775 12.787 12.037-2.381 4.794-3.033-2.109-5.203 7.648 12.576 8.736 13.945 23.094-28.438 13.657 22.477 24.991-27.028 11.526 3.561 8.564 38.95-16.618-22.856-25.459L257 170.121z" fill="#fff"/><path d="M60.12 237.381l4.235-8.245-6.615-3.473 6.994-12.677-13.988-8.756 7.478-9.907-7.288-5.624-13.63 18.024 15.147 9.502-7.31 13.273 14.977 7.883z" fill="#fff"/></svg>