<svg width="257" height="371" viewBox="0 0 257 371" fill="none" xmlns="http://www.w3.org/2000/svg">
<path d="M232.519 232.715L226.284 225.919L207.873 243.197L220.301 277.328L188.703 280.758L186.723 322.346L164.477 316.892L129.572 356.796L94.2659 315.038L78.4878 321.706L70.9885 282.484L43.9613 287.022L53.0406 245.072L21.7793 229.434L17.7136 237.765L42.5499 250.164L32.1014 298.399L63.6787 293.115L71.6204 334.66L91.6327 326.202L129.466 370.942L167.679 327.225L195.36 334.021L197.487 289.131L232.983 285.275L218.595 245.797L232.519 232.715Z" fill="white"/>
<path d="M49.2947 141.636L66.0207 183.18L108.763 190.062L107.309 165.817L49.2947 141.636ZM72.5511 174.85L66.0418 158.658L98.5038 172.187L98.9252 179.09L72.5721 174.85H72.5511Z" fill="white"/>
<path d="M151.755 165.818L146.636 241.621H112.362L104.526 249.589L104.757 266.697L121.252 279.267H137.767L154.261 266.697V264.545L159.423 188.614L193.043 183.203L209.769 141.658L151.776 165.818H151.755ZM134.692 269.999H124.306L113.858 262.031L113.752 253.36L116.175 250.889H142.823L145.245 253.36L145.14 262.01L134.692 269.978V269.999ZM186.471 174.872L160.054 179.133L160.518 172.209L193.001 158.68L186.492 174.872H186.471Z" fill="white"/>
<path d="M140.338 287.767H118.683L99.4707 280.012L79.0793 234.824L70.7373 238.659L92.6455 287.256L116.934 297.035H142.107L166.08 287.383L194.919 240.129L192.265 216.991L183.249 198.371L175.012 202.44L183.333 219.655L185.439 237.998L159.866 279.905L140.338 287.767Z" fill="white"/>
<path d="M257 170.121L236.735 136.523L233.217 134.094L239.242 121.95L231.827 114.962L243.981 95.4893L218.408 3.55798L169.241 62.0404L129.448 53.5397L89.8447 63.3613L40.488 0.14917L17.5266 94.1045L27.1325 115.111L12.85 123.676L24.731 140.656L0 158.126L25.068 182.67L0.210656 209.067L32.6516 228.71L37.3703 220.742L14.767 207.064L37.9812 182.393L14.3667 159.298L41.5202 140.123L36.2749 132.518L32.2514 135.351L26.0792 126.531L50.6206 111.809L45.923 103.82L35.0742 110.339L27.2167 93.1671L44.9118 20.7725L47.9242 24.6287L47.6925 24.5861L36.5277 82.7063L49.4198 98.2164L56.4347 92.2297L46.3653 80.1284L55.2339 34.0029L86.3057 73.8008L129.595 63.0417L165.575 70.7328L163.09 83.175L172.085 85.0072L175.223 69.2415L204.125 34.8764L211.477 81.641L200.734 97.6624L208.317 102.882L221.104 83.8142L211.941 25.5661L214.258 22.8391L234.039 94.0406L225.001 108.528L221.441 105.183L215.185 111.958L227.972 123.995L225.591 128.789L222.558 126.68L217.355 134.328L229.931 143.064L243.876 166.158L215.438 179.815L237.915 204.806L210.887 216.332L214.448 224.896L253.398 208.278L230.542 182.819L257 170.121Z" fill="white"/>
<path d="M60.1204 237.381L64.3546 229.136L57.74 225.663L64.7338 212.986L50.7462 204.23L58.2245 194.323L50.9358 188.699L37.3064 206.723L52.4525 216.225L45.1428 229.498L60.1204 237.381Z" fill="white"/>
</svg>
