<svg width="2109" height="140" viewBox="0 0 2109 140" fill="none" xmlns="http://www.w3.org/2000/svg">
<path fill-rule="evenodd" clip-rule="evenodd" d="M1970.47 131.114L1970.45 131.111C1962.37 129.289 1955.56 126.821 1950.07 123.67L1948.75 122.91L1955.13 98.3789L1957.34 99.4831C1961.05 101.339 1965.16 103.039 1969.67 104.58C1974.17 106.005 1978.78 107.158 1983.5 108.038C1988.22 108.804 1992.64 109.184 1996.76 109.184C2003.97 109.184 2009.18 107.92 2012.63 105.649C2015.96 103.464 2017.61 100.359 2017.61 96.0639C2017.61 93.6842 2017.07 91.8642 2016.12 90.477L2016.1 90.4539L2016.08 90.4304C2015.07 88.8651 2013.5 87.4496 2011.26 86.2277L2011.23 86.2113L2011.2 86.1938C2008.9 84.8358 2005.92 83.5459 2002.2 82.3428C1998.43 81.1258 1993.99 79.8484 1988.87 78.5112L1988.85 78.506L1988.83 78.5003C1982.81 76.7983 1977.4 74.8621 1972.59 72.6861C1967.74 70.491 1963.53 67.8723 1960.01 64.8153L1959.99 64.8043L1959.98 64.7931C1956.54 61.7091 1953.86 58.1345 1951.95 54.0755L1951.93 54.0439L1951.92 54.0118C1950.11 49.8018 1949.24 45.0463 1949.24 39.7839C1949.24 28.2121 1953.71 19.1738 1962.69 12.9449C1971.56 6.68306 1983.89 3.67993 1999.45 3.67993C2007.19 3.67993 2014.87 4.41926 2022.5 5.89748C2030.22 7.26231 2036.94 9.20568 2042.61 11.7514L2044.16 12.4491L2037.55 37.0842L2035.38 36.0436C2030.17 33.545 2024.39 31.6332 2018.03 30.3185L2018.01 30.3151L2018 30.3115C2011.64 28.8863 2005.35 28.1759 1999.12 28.1759C1991.65 28.1759 1986.31 29.3394 1982.84 31.4189L1982.82 31.4299L1982.8 31.4404C1979.5 33.3278 1977.93 36.0286 1977.93 39.7839C1977.93 42.18 1978.43 44.1014 1979.32 45.6338C1980.24 47.0894 1981.65 48.4401 1983.66 49.6504C1985.88 50.9138 1988.66 52.1511 1992.05 53.352C1995.59 54.57 1999.81 55.9028 2004.71 57.3505C2011.16 59.1602 2016.9 61.2039 2021.93 63.488C2027.09 65.6719 2031.47 68.283 2035.01 71.3449C2038.69 74.3188 2041.51 77.852 2043.43 81.9403C2045.37 86.0676 2046.31 90.8502 2046.31 96.2319C2046.31 108.034 2041.72 117.387 2032.55 124.057L2032.54 124.06C2023.56 130.56 2011.05 133.68 1995.25 133.68C1986.83 133.68 1978.57 132.826 1970.48 131.117L1970.47 131.114ZM2033.72 72.8799C2030.36 69.9679 2026.16 67.4479 2021.12 65.3199C2016.2 63.0799 2010.54 61.0639 2004.16 59.2719C1999.23 57.8159 1994.97 56.4719 1991.39 55.2399C1987.92 54.0079 1985 52.7199 1982.65 51.3759C1980.41 50.0319 1978.73 48.4639 1977.61 46.6719C1976.49 44.7679 1975.93 42.4719 1975.93 39.7839C1975.93 35.3039 1977.89 31.9439 1981.81 29.7039C1985.73 27.3519 1991.5 26.1759 1999.12 26.1759C2005.5 26.1759 2011.94 26.9039 2018.44 28.3599C2024.2 29.5521 2029.52 31.2291 2034.4 33.3907C2035.02 33.6659 2035.64 33.949 2036.24 34.2399L2041.79 13.5759C2036.3 11.1119 2029.75 9.20792 2022.13 7.86392C2014.63 6.40793 2007.07 5.67993 1999.45 5.67993C1984.11 5.67993 1972.24 8.64793 1963.84 14.5839C1955.44 20.4079 1951.24 28.8079 1951.24 39.7839C1951.24 44.8239 1952.08 49.3039 1953.76 53.2239C1955.55 57.0319 1958.07 60.3919 1961.32 63.3039C1964.68 66.2159 1968.71 68.7359 1973.41 70.8639C1978.12 72.9919 1983.44 74.8959 1989.37 76.5759C1994.52 77.9199 1999 79.2079 2002.81 80.4399C2006.62 81.6719 2009.76 83.0159 2012.22 84.4719C2014.68 85.8159 2016.53 87.4399 2017.76 89.3439C2019 91.1359 2019.61 93.3759 2019.61 96.0639C2019.61 100.992 2017.65 104.744 2013.73 107.32C2009.81 109.896 2004.16 111.184 1996.76 111.184C1992.51 111.184 1987.97 110.792 1983.16 110.008C1978.34 109.112 1973.64 107.936 1969.04 106.48C1965.18 105.16 1961.59 103.72 1958.28 102.162C1957.66 101.87 1957.05 101.573 1956.44 101.272L1951.07 121.936C1956.33 124.96 1962.94 127.368 1970.89 129.16C1978.84 130.84 1986.96 131.68 1995.25 131.68C2010.82 131.68 2022.86 128.6 2031.37 122.44C2040 116.168 2044.31 107.432 2044.31 96.2319C2044.31 91.0799 2043.41 86.5999 2041.62 82.7919C2039.83 78.9839 2037.2 75.6799 2033.72 72.8799Z" fill="#FFB54B"/>
<path fill-rule="evenodd" clip-rule="evenodd" d="M1870.24 132L1827.21 5.36011H1857.34L1887.12 100.331L1916.9 5.36011H1947.04L1903.84 132H1870.24ZM1887.29 106.48H1886.96L1855.88 7.36011H1830L1871.67 130H1902.41L1944.24 7.36011H1918.37L1887.29 106.48Z" fill="#FFB54B"/>
<path fill-rule="evenodd" clip-rule="evenodd" d="M1718.26 132L1761.98 5.36011H1796.58L1840.3 132H1810.15L1801.33 103.944H1757.18L1748.41 132H1718.26ZM1755.71 101.944H1802.8L1811.62 130H1837.49L1795.16 7.36011H1763.4L1721.07 130H1746.94L1755.71 101.944ZM1779.36 27.3521H1779.03L1762.12 81.4481H1796.36L1779.36 27.3521ZM1793.64 79.4481L1779.2 33.5034L1764.84 79.4481H1793.64Z" fill="#FFB54B"/>
<path fill-rule="evenodd" clip-rule="evenodd" d="M1582.33 132V5.36011H1615.21L1645.32 74.6328L1675.42 5.36011H1708.3V132H1680.78V53.0781L1657.54 105.96H1633.09L1609.85 53.0783V132H1582.33ZM1607.85 44.3201H1608.19L1634.4 103.96H1656.24L1682.45 44.3201H1682.78V130H1706.3V7.36011H1676.73L1645.49 79.2641H1645.15L1613.9 7.36011H1584.33V130H1607.85V44.3201Z" fill="#FFB54B"/>
<path fill-rule="evenodd" clip-rule="evenodd" d="M1443.33 131.114L1443.32 131.111C1435.23 129.289 1428.42 126.821 1422.94 123.67L1421.62 122.91L1428 98.3789L1430.21 99.4831C1433.92 101.339 1438.03 103.039 1442.54 104.58C1447.03 106.005 1451.64 107.158 1456.37 108.038C1461.08 108.804 1465.5 109.184 1469.63 109.184C1476.84 109.184 1482.04 107.92 1485.5 105.649C1488.82 103.464 1490.48 100.359 1490.48 96.0639C1490.48 93.6842 1489.94 91.8642 1488.98 90.477L1488.97 90.4539L1488.95 90.4304C1487.94 88.8651 1486.37 87.4496 1484.13 86.2277L1484.1 86.2113L1484.07 86.1938C1481.77 84.8358 1478.78 83.5459 1475.06 82.3428C1471.3 81.1258 1466.86 79.8484 1461.73 78.5112L1461.71 78.506L1461.69 78.5003C1455.68 76.7983 1450.26 74.8621 1445.45 72.6861C1440.6 70.491 1436.4 67.8723 1432.87 64.8153L1432.86 64.8043L1432.85 64.7931C1429.41 61.7091 1426.72 58.1345 1424.81 54.0755L1424.8 54.0439L1424.78 54.0118C1422.98 49.8018 1422.1 45.0463 1422.1 39.7839C1422.1 28.2121 1426.58 19.1738 1435.56 12.9449C1444.42 6.68306 1456.76 3.67993 1472.32 3.67993C1480.06 3.67993 1487.74 4.41926 1495.36 5.89748C1503.09 7.26231 1509.8 9.20568 1515.47 11.7514L1517.03 12.4491L1510.42 37.0842L1508.25 36.0436C1503.03 33.545 1497.25 31.6332 1490.9 30.3185L1490.88 30.3151L1490.87 30.3115C1484.51 28.8863 1478.21 28.1759 1471.98 28.1759C1464.51 28.1759 1459.17 29.3394 1455.71 31.4189L1455.69 31.4299L1455.67 31.4404C1452.37 33.3278 1450.8 36.0286 1450.8 39.7839C1450.8 42.18 1451.29 44.1014 1452.19 45.6338C1453.1 47.0894 1454.52 48.4401 1456.53 49.6504C1458.75 50.9138 1461.53 52.1511 1464.92 53.352C1468.46 54.57 1472.68 55.9028 1477.58 57.3505C1484.02 59.1602 1489.77 61.2039 1494.79 63.488C1499.96 65.6719 1504.33 68.2829 1507.87 71.3449C1511.55 74.3188 1514.37 77.852 1516.3 81.9403C1518.24 86.0676 1519.18 90.8502 1519.18 96.2319C1519.18 108.034 1514.59 117.387 1505.42 124.057L1505.41 124.06C1496.43 130.56 1483.92 133.68 1468.12 133.68C1459.69 133.68 1451.44 132.826 1443.35 131.117L1443.33 131.114ZM1506.59 72.8799C1503.23 69.9679 1499.03 67.4479 1493.99 65.3199C1489.06 63.0799 1483.41 61.0639 1477.02 59.2719C1472.1 57.8159 1467.84 56.4719 1464.26 55.2399C1460.78 54.0079 1457.87 52.7199 1455.52 51.3759C1453.28 50.0319 1451.6 48.4639 1450.48 46.6719C1449.36 44.7679 1448.8 42.4719 1448.8 39.7839C1448.8 35.3039 1450.76 31.9439 1454.68 29.7039C1458.6 27.3519 1464.37 26.1759 1471.98 26.1759C1478.37 26.1759 1484.81 26.9039 1491.3 28.3599C1497.07 29.5521 1502.39 31.2291 1507.27 33.3907C1507.89 33.6659 1508.5 33.949 1509.11 34.2399L1514.66 13.5759C1509.17 11.1119 1502.62 9.20792 1495 7.86392C1487.5 6.40793 1479.94 5.67993 1472.32 5.67993C1456.98 5.67993 1445.1 8.64793 1436.7 14.5839C1428.3 20.4079 1424.1 28.8079 1424.1 39.7839C1424.1 44.8239 1424.94 49.3039 1426.62 53.2239C1428.42 57.0319 1430.94 60.3919 1434.18 63.3039C1437.54 66.2159 1441.58 68.7359 1446.28 70.8639C1450.98 72.9919 1456.3 74.8959 1462.24 76.5759C1467.39 77.9199 1471.87 79.2079 1475.68 80.4399C1479.49 81.6719 1482.62 83.0159 1485.09 84.4719C1487.55 85.8159 1489.4 87.4399 1490.63 89.3439C1491.86 91.1359 1492.48 93.3759 1492.48 96.0639C1492.48 100.992 1490.52 104.744 1486.6 107.32C1482.68 109.896 1477.02 111.184 1469.63 111.184C1465.38 111.184 1460.84 110.792 1456.02 110.008C1451.21 109.112 1446.5 107.936 1441.91 106.48C1438.04 105.16 1434.46 103.72 1431.15 102.162C1430.52 101.87 1429.91 101.573 1429.31 101.272L1423.94 121.936C1429.2 124.96 1435.81 127.368 1443.76 129.16C1451.71 130.84 1459.83 131.68 1468.12 131.68C1483.69 131.68 1495.73 128.6 1504.24 122.44C1512.86 116.168 1517.18 107.432 1517.18 96.2319C1517.18 91.0799 1516.28 86.5999 1514.49 82.7919C1512.7 78.9839 1510.06 75.6799 1506.59 72.8799Z" fill="#FFB54B"/>
<path fill-rule="evenodd" clip-rule="evenodd" d="M1343.1 132L1300.08 5.36011H1330.21L1359.99 100.331L1389.77 5.36011H1419.91L1376.71 132H1343.1ZM1360.16 106.48H1359.82L1328.74 7.36011H1302.87L1344.54 130H1375.28L1417.11 7.36011H1391.24L1360.16 106.48Z" fill="#FFB54B"/>
<path fill-rule="evenodd" clip-rule="evenodd" d="M1191.13 132L1234.84 5.36011H1269.45L1313.16 132H1283.02L1274.2 103.944H1230.05L1221.28 132H1191.13ZM1228.58 101.944H1275.67L1284.49 130H1310.36L1268.02 7.36011H1236.27L1193.93 130H1219.81L1228.58 101.944ZM1252.23 27.3521H1251.89L1234.98 81.4481H1269.23L1252.23 27.3521ZM1266.5 79.4481L1252.07 33.5034L1237.7 79.4481H1266.5Z" fill="#FFB54B"/>
<path fill-rule="evenodd" clip-rule="evenodd" d="M1055.2 132V5.36011H1088.08L1118.19 74.6328L1148.29 5.36011H1181.17V132H1153.65V53.0781L1130.41 105.96H1105.96L1082.72 53.0783V132H1055.2ZM1080.72 44.3201H1081.06L1107.27 103.96H1129.11L1155.31 44.3201H1155.65V130H1179.17V7.36011H1149.6L1118.35 79.2641H1118.02L1086.77 7.36011H1057.2V130H1080.72V44.3201Z" fill="#FFB54B"/>
<path fill-rule="evenodd" clip-rule="evenodd" d="M916.2 131.114L916.187 131.111C908.102 129.289 901.292 126.821 895.806 123.67L894.482 122.91L900.864 98.3789L903.073 99.4831C906.785 101.339 910.893 103.039 915.404 104.58C919.903 106.006 924.512 107.158 929.234 108.038C933.95 108.804 938.371 109.184 942.498 109.184C949.707 109.184 954.912 107.92 958.368 105.649C961.692 103.464 963.346 100.359 963.346 96.0639C963.346 93.6842 962.804 91.8642 961.85 90.477L961.834 90.4539L961.819 90.4304C960.806 88.8651 959.237 87.4496 956.997 86.2277L956.966 86.2113L956.937 86.1938C954.639 84.8358 951.649 83.5459 947.931 82.3428C944.169 81.1258 939.728 79.8484 934.602 78.5112L934.582 78.506L934.562 78.5003C928.548 76.7983 923.132 74.8621 918.322 72.6861C913.47 70.491 909.268 67.8723 905.741 64.8153L905.728 64.8043L905.715 64.7931C902.275 61.7091 899.591 58.1345 897.681 54.0755L897.666 54.0439L897.652 54.0118C895.848 49.8018 894.97 45.0463 894.97 39.7839C894.97 28.2121 899.444 19.1738 908.424 12.9449C917.29 6.68306 929.626 3.67993 945.186 3.67993C952.925 3.67993 960.607 4.41923 968.231 5.89736C975.959 7.2622 982.671 9.2056 988.342 11.7514L989.895 12.4491L983.286 37.0842L981.114 36.0436C975.9 33.545 970.12 31.6332 963.765 30.3185L963.749 30.3151L963.733 30.3115C957.374 28.8863 951.081 28.1759 944.85 28.1759C937.382 28.1759 932.041 29.3394 928.575 31.4189L928.557 31.4299L928.539 31.4404C925.236 33.3278 923.666 36.0286 923.666 39.7839C923.666 42.1807 924.162 44.1026 925.057 45.6352C925.972 47.0899 927.385 48.4399 929.397 49.6497C931.611 50.9134 934.399 52.1509 937.783 53.352C941.326 54.5699 945.545 55.9026 950.444 57.3502C956.89 59.16 962.632 61.2038 967.661 63.488C972.828 65.6721 977.202 68.2834 980.742 71.3456C984.421 74.3194 987.24 77.8523 989.164 81.9403C991.106 86.0676 992.042 90.8502 992.042 96.2319C992.042 108.034 987.454 117.387 978.283 124.057L978.279 124.06C969.297 130.56 956.783 133.68 940.986 133.68C932.562 133.68 924.304 132.826 916.213 131.117L916.2 131.114ZM979.458 72.8799C976.098 69.9679 971.898 67.4479 966.858 65.3199C961.93 63.0799 956.274 61.0639 949.89 59.2719C944.962 57.8159 940.706 56.4719 937.122 55.2399C933.65 54.0079 930.738 52.7199 928.386 51.3759C926.146 50.0319 924.466 48.4639 923.346 46.6719C922.226 44.7679 921.666 42.4719 921.666 39.7839C921.666 35.3039 923.626 31.9439 927.546 29.7039C931.466 27.3519 937.234 26.1759 944.85 26.1759C951.234 26.1759 957.674 26.9039 964.17 28.3599C969.933 29.5521 975.254 31.2291 980.135 33.3907C980.757 33.6659 981.371 33.949 981.978 34.2399L987.522 13.5759C982.034 11.1119 975.482 9.20792 967.866 7.86392C960.362 6.40793 952.802 5.67993 945.186 5.67993C929.842 5.67993 917.97 8.64793 909.57 14.5839C901.17 20.4079 896.97 28.8079 896.97 39.7839C896.97 44.8239 897.81 49.3039 899.49 53.2239C901.282 57.0319 903.802 60.3919 907.05 63.3039C910.41 66.2159 914.442 68.7359 919.146 70.8639C923.85 72.9919 929.17 74.8959 935.106 76.5759C940.258 77.9199 944.738 79.2079 948.546 80.4399C952.354 81.6719 955.49 83.0159 957.954 84.4719C960.418 85.8159 962.266 87.4399 963.498 89.3439C964.73 91.1359 965.346 93.3759 965.346 96.0639C965.346 100.992 963.386 104.744 959.466 107.32C955.546 109.896 949.89 111.184 942.498 111.184C938.242 111.184 933.706 110.792 928.89 110.008C924.074 109.112 919.37 107.936 914.778 106.48C910.912 105.16 907.324 103.72 904.013 102.162C903.392 101.87 902.78 101.573 902.178 101.272L896.802 121.936C902.066 124.96 908.674 127.368 916.626 129.16C924.578 130.84 932.698 131.68 940.986 131.68C956.554 131.68 968.594 128.6 977.106 122.44C985.73 116.168 990.042 107.432 990.042 96.2319C990.042 91.0799 989.146 86.5999 987.354 82.7919C985.562 78.9839 982.93 75.6799 979.458 72.8799Z" fill="#FFB54B"/>
<path fill-rule="evenodd" clip-rule="evenodd" d="M815.97 132L772.947 5.36011H803.079L832.859 100.331L862.638 5.36011H892.774L849.577 132H815.97ZM833.026 106.48H832.69L801.61 7.36011H775.739L817.403 130H848.146L889.979 7.36011H864.107L833.026 106.48Z" fill="#FFB54B"/>
<path fill-rule="evenodd" clip-rule="evenodd" d="M663.995 132L707.712 5.36011H742.315L786.032 132H755.885L747.069 103.944H702.914L694.144 132H663.995ZM701.444 101.944H748.537L757.353 130H783.225L740.889 7.36011H709.137L666.801 130H692.673L701.444 101.944ZM725.097 27.3521H724.761L707.851 81.4481H742.096L725.097 27.3521ZM739.372 79.4481L724.934 33.5034L710.571 79.4481H739.372Z" fill="#FFB54B"/>
<path fill-rule="evenodd" clip-rule="evenodd" d="M528.069 132V5.36011H560.948L591.053 74.6327L621.157 5.36011H654.037V132H626.517V53.0781L603.279 105.96H578.827L555.589 53.0781V132H528.069ZM553.589 44.3201H553.925L580.133 103.96H601.973L628.181 44.3201H628.517V130H652.037V7.36011H622.469L591.221 79.2641H590.885L559.637 7.36011H530.069V130H553.589V44.3201Z" fill="#FFB54B"/>
<path fill-rule="evenodd" clip-rule="evenodd" d="M389.067 131.114L389.054 131.111C380.969 129.289 374.159 126.821 368.673 123.67L367.35 122.91L373.732 98.3789L375.94 99.4831C379.652 101.339 383.76 103.039 388.271 104.58C392.769 106.006 397.38 107.158 402.101 108.038C406.818 108.804 411.238 109.184 415.366 109.184C422.574 109.184 427.779 107.92 431.235 105.649C434.559 103.464 436.214 100.359 436.214 96.0639C436.214 93.6842 435.671 91.8642 434.717 90.477L434.702 90.4539L434.686 90.4304C433.674 88.8651 432.104 87.4496 429.864 86.2277L429.834 86.2113L429.804 86.1938C427.506 84.8358 424.517 83.5459 420.798 82.3428C417.036 81.1258 412.595 79.8484 407.469 78.5112L407.449 78.506L407.429 78.5003C401.415 76.7983 395.999 74.8621 391.189 72.6861C386.337 70.491 382.135 67.8723 378.608 64.8153L378.595 64.8043L378.582 64.7931C375.143 61.7091 372.458 58.1345 370.548 54.0755L370.533 54.0439L370.519 54.0118C368.715 49.8018 367.838 45.0463 367.838 39.7839C367.838 28.2128 372.311 19.175 381.29 12.9461C390.156 6.68344 402.492 3.67993 418.054 3.67993C425.792 3.67993 433.474 4.41923 441.098 5.89736C448.826 7.2622 455.539 9.2056 461.209 11.7514L462.763 12.4491L456.153 37.0842L453.981 36.0436C448.767 33.545 442.987 31.6332 436.632 30.3185L436.616 30.3151L436.6 30.3115C430.242 28.8863 423.948 28.1759 417.718 28.1759C410.249 28.1759 404.908 29.3394 401.443 31.4189L401.424 31.4299L401.406 31.4404C398.103 33.3278 396.534 36.0286 396.534 39.7839C396.534 42.1807 397.029 44.1026 397.924 45.6352C398.839 47.0901 400.253 48.4402 402.264 49.6501C404.479 50.9136 407.266 52.151 410.65 53.352C414.193 54.5699 418.413 55.9026 423.312 57.3502C429.757 59.1599 435.499 61.2037 440.528 63.4878C445.695 65.6719 450.069 68.2833 453.609 71.3456C457.289 74.3194 460.107 77.8523 462.031 81.9403C463.973 86.0676 464.91 90.8502 464.91 96.2319C464.91 108.034 460.321 117.387 451.15 124.057L451.146 124.06C442.164 130.56 429.65 133.68 413.854 133.68C405.429 133.68 397.171 132.826 389.08 131.117L389.067 131.114ZM452.326 72.8799C448.966 69.9679 444.766 67.4479 439.726 65.3199C434.798 63.0799 429.142 61.0639 422.758 59.2719C417.83 57.8159 413.574 56.4719 409.99 55.2399C406.518 54.0079 403.606 52.7199 401.254 51.3759C399.014 50.0319 397.334 48.4639 396.214 46.6719C395.094 44.7679 394.534 42.4719 394.534 39.7839C394.534 35.3039 396.494 31.9439 400.414 29.7039C404.334 27.3519 410.102 26.1759 417.718 26.1759C424.102 26.1759 430.542 26.9039 437.038 28.3599C442.8 29.5521 448.122 31.2291 453.003 33.3907C453.624 33.6659 454.238 33.949 454.846 34.2399L460.39 13.5759C454.902 11.1119 448.35 9.20792 440.734 7.86392C433.23 6.40793 425.67 5.67993 418.054 5.67993C402.71 5.67993 390.838 8.64793 382.438 14.5839C374.038 20.4079 369.838 28.8079 369.838 39.7839C369.838 44.8239 370.678 49.3039 372.358 53.2239C374.15 57.0319 376.67 60.3919 379.918 63.3039C383.278 66.2159 387.31 68.7359 392.014 70.8639C396.718 72.9919 402.038 74.8959 407.974 76.5759C413.126 77.9199 417.606 79.2079 421.414 80.4399C425.222 81.6719 428.358 83.0159 430.822 84.4719C433.286 85.8159 435.134 87.4399 436.366 89.3439C437.598 91.1359 438.214 93.3759 438.214 96.0639C438.214 100.992 436.254 104.744 432.334 107.32C428.414 109.896 422.758 111.184 415.366 111.184C411.11 111.184 406.574 110.792 401.758 110.008C396.942 109.112 392.238 107.936 387.646 106.48C383.779 105.16 380.191 103.72 376.881 102.162C376.259 101.87 375.647 101.573 375.046 101.272L369.67 121.936C374.934 124.96 381.542 127.368 389.494 129.16C397.446 130.84 405.566 131.68 413.854 131.68C429.422 131.68 441.462 128.6 449.974 122.44C458.598 116.168 462.91 107.432 462.91 96.2319C462.91 91.0799 462.014 86.5999 460.222 82.7919C458.43 78.9839 455.798 75.6799 452.326 72.8799Z" fill="#FFB54B"/>
<path fill-rule="evenodd" clip-rule="evenodd" d="M288.837 132L245.814 5.36011H275.947L305.726 100.331L335.505 5.36011H365.641L322.445 132H288.837ZM305.894 106.48H305.558L274.478 7.36011H248.606L290.27 130H321.014L362.846 7.36011H336.974L305.894 106.48Z" fill="#FFB54B"/>
<path fill-rule="evenodd" clip-rule="evenodd" d="M136.862 132L180.579 5.36011H215.182L258.899 132H228.753L219.936 103.944H175.781L167.011 132H136.862ZM174.311 101.944H221.404L230.221 130H256.093L213.757 7.36011H182.005L139.669 130H165.541L174.311 101.944ZM197.965 27.3521H197.629L180.718 81.4481H214.964L197.965 27.3521ZM212.239 79.4481L197.801 33.5034L183.439 79.4481H212.239Z" fill="#FFB54B"/>
<path fill-rule="evenodd" clip-rule="evenodd" d="M0.936035 132V5.36011H33.8156L63.92 74.6327L94.0245 5.36011H126.904V132H99.384V53.0781L76.1458 105.96H51.6943L28.456 53.0781V132H0.936035ZM26.456 44.3201H26.792L53 103.96H74.84L101.048 44.3201H101.384V130H124.904V7.36011H95.336L64.088 79.2641H63.752L32.504 7.36011H2.93604V130H26.456V44.3201Z" fill="#FFB54B"/>
</svg>
