<svg width="136" height="136" viewBox="0 0 136 136" fill="none" xmlns="http://www.w3.org/2000/svg">
<g clip-path="url(#clip0_1_120)">
<path d="M62.5201 5.75001L58.6401 0.61001L61.2101 0.44001L63.4301 3.82001L65.3001 0.17001L67.7501 0.0100098L64.5801 5.62001L64.8501 9.62001L62.7801 9.76001L62.5101 5.76001L62.5201 5.75001Z" fill="black"/>
<path d="M68.6799 4.65997C68.7499 3.90997 68.9399 3.23997 69.2499 2.65997C69.5599 2.07997 69.9599 1.58997 70.4499 1.20997C70.9399 0.829966 71.4999 0.549966 72.1399 0.379966C72.7799 0.209966 73.4599 0.159966 74.1899 0.229966C74.9199 0.299966 75.5799 0.479966 76.1799 0.759966C76.7699 1.04997 77.2799 1.42997 77.6899 1.89997C78.0999 2.36997 78.3999 2.91997 78.5899 3.54997C78.7799 4.17997 78.8399 4.86997 78.7699 5.61997C78.6999 6.36997 78.5099 7.03997 78.1999 7.61997C77.8899 8.19997 77.4899 8.68997 76.9999 9.06997C76.5099 9.44997 75.9499 9.72997 75.3099 9.89997C74.6699 10.07 73.9899 10.12 73.2599 10.05C72.5299 9.97997 71.8699 9.79997 71.2699 9.51997C70.6699 9.23997 70.1699 8.84997 69.7699 8.37997C69.3599 7.90997 69.0599 7.35997 68.8699 6.72997C68.6799 6.09997 68.6199 5.40997 68.6899 4.65997H68.6799ZM70.8199 4.85997C70.7799 5.29997 70.8099 5.70997 70.9099 6.08997C71.0099 6.46997 71.1799 6.79997 71.4099 7.09997C71.6399 7.38997 71.9299 7.62997 72.2699 7.80997C72.6099 7.98997 72.9999 8.10997 73.4399 8.14997C73.8799 8.18997 74.2899 8.14997 74.6599 8.03997C75.0299 7.91997 75.3599 7.73997 75.6399 7.49997C75.9199 7.25997 76.1499 6.95997 76.3199 6.59997C76.4899 6.23997 76.5999 5.84997 76.6399 5.40997C76.6799 4.97997 76.6399 4.56997 76.5499 4.18997C76.4599 3.80997 76.2799 3.46997 76.0499 3.17997C75.8199 2.88997 75.5299 2.64997 75.1899 2.46997C74.8499 2.28997 74.4599 2.16997 74.0199 2.12997C73.5799 2.08997 73.1699 2.12997 72.7999 2.23997C72.4299 2.35997 72.0999 2.53997 71.8199 2.77997C71.5399 3.01997 71.3099 3.31997 71.1399 3.67997C70.9699 4.03997 70.8599 4.42997 70.8199 4.85997Z" fill="black"/>
<path d="M87.9501 9.17C87.8001 9.71 87.5901 10.18 87.3001 10.59C87.0101 11 86.6701 11.32 86.2501 11.57C85.8301 11.82 85.3701 11.97 84.8401 12.02C84.3101 12.08 83.7301 12.02 83.1101 11.85C82.4801 11.68 81.9501 11.43 81.5201 11.11C81.0901 10.79 80.7701 10.42 80.5401 10C80.3101 9.58 80.1801 9.12 80.1401 8.62C80.1001 8.12 80.1601 7.61 80.3001 7.07L81.8301 1.5L83.8301 2.05L82.3301 7.54C82.2501 7.82 82.2301 8.09 82.2501 8.36C82.2701 8.62 82.3401 8.86 82.4601 9.08C82.5701 9.3 82.7301 9.49 82.9301 9.65C83.1301 9.81 83.3601 9.93 83.6301 10C83.8901 10.07 84.1501 10.09 84.4001 10.05C84.6501 10.01 84.8801 9.93 85.0901 9.8C85.3001 9.67 85.4801 9.5 85.6401 9.28C85.7901 9.07 85.9101 8.82 85.9901 8.54L87.4901 3.05L89.4901 3.6L87.9601 9.17H87.9501Z" fill="black"/>
<path d="M100.65 11.44C100.59 11.13 100.46 10.84 100.26 10.58C100.06 10.32 99.7901 10.1 99.4501 9.92004C99.1101 9.74004 98.7501 9.63004 98.3901 9.61004C98.0301 9.59004 97.6701 9.64004 97.3301 9.76004C96.9901 9.88004 96.6701 10.08 96.3701 10.34C96.0701 10.6 95.8201 10.93 95.6201 11.31C95.4101 11.7 95.2801 12.09 95.2301 12.48C95.1801 12.87 95.1901 13.24 95.2801 13.59C95.3701 13.94 95.5101 14.26 95.7301 14.54C95.9401 14.83 96.2201 15.05 96.5401 15.23C96.9201 15.43 97.2901 15.53 97.6601 15.53C98.0301 15.53 98.3901 15.44 98.7201 15.26L99.6401 17.21C99.0301 17.51 98.3901 17.64 97.7201 17.59C97.0601 17.54 96.4401 17.36 95.8701 17.05C95.2201 16.7 94.6801 16.28 94.2401 15.79C93.8001 15.3 93.4901 14.75 93.2901 14.16C93.0901 13.57 93.0301 12.95 93.0901 12.29C93.1501 11.63 93.3601 10.97 93.7201 10.31C94.0701 9.65004 94.5101 9.10004 95.0201 8.69004C95.5301 8.28004 96.0801 7.98004 96.6901 7.81004C97.2901 7.64004 97.9201 7.60004 98.5701 7.69004C99.2201 7.78004 99.8801 8.00004 100.52 8.34004C100.75 8.46004 100.99 8.62004 101.22 8.80004C101.45 8.98004 101.66 9.18004 101.86 9.40004C102.06 9.63004 102.23 9.88004 102.37 10.15C102.51 10.43 102.61 10.73 102.67 11.05L100.65 11.45V11.44Z" fill="black"/>
<path d="M107.77 13.26L109.14 14.29L106.74 24.25L104.88 22.84L105.43 20.76L102.52 18.56L100.7 19.68L98.8799 18.3L107.78 13.25L107.77 13.26ZM106.76 15.92L104.09 17.56L105.92 18.94L106.76 15.91V15.92Z" fill="black"/>
<path d="M114.01 18.25L115.94 20.3L113.92 27.68L113.94 27.7L118.7 23.23L120.12 24.74L113.27 31.17L111.42 29.2L113.49 21.63L113.47 21.61L108.59 26.19L107.17 24.68L114.02 18.25H114.01Z" fill="black"/>
<path d="M121.17 42.56C120.59 42.18 120.08 41.74 119.63 41.24C119.18 40.74 118.79 40.18 118.45 39.58C118.09 38.94 117.85 38.3 117.75 37.64C117.65 36.98 117.67 36.36 117.82 35.76C117.97 35.16 118.25 34.59 118.66 34.07C119.07 33.55 119.6 33.11 120.25 32.74C120.9 32.37 121.56 32.14 122.21 32.06C122.86 31.98 123.49 32.03 124.09 32.21C124.69 32.39 125.24 32.69 125.74 33.12C126.24 33.55 126.68 34.08 127.04 34.72C127.41 35.37 127.67 36.02 127.83 36.66C127.98 37.3 127.99 37.94 127.83 38.57L125.72 38.08C125.84 37.69 125.87 37.3 125.83 36.92C125.79 36.54 125.63 36.12 125.37 35.65C125.15 35.27 124.89 34.95 124.58 34.72C124.27 34.48 123.94 34.32 123.58 34.23C123.22 34.14 122.84 34.13 122.45 34.19C122.06 34.25 121.68 34.39 121.3 34.61C120.91 34.83 120.6 35.09 120.34 35.39C120.09 35.69 119.91 36.02 119.8 36.37C119.69 36.73 119.66 37.1 119.71 37.48C119.76 37.87 119.89 38.25 120.11 38.64C120.33 39.03 120.57 39.35 120.82 39.58C121.07 39.82 121.29 39.99 121.48 40.11L122.81 39.36L121.98 37.89L123.64 36.95L125.45 40.15L121.18 42.57L121.17 42.56Z" fill="black"/>
<path d="M125.47 42.1601C126.18 41.9101 126.86 41.8001 127.52 41.8401C128.18 41.8801 128.79 42.0401 129.34 42.3201C129.89 42.6001 130.38 43.0001 130.8 43.5101C131.22 44.0201 131.55 44.6201 131.8 45.3101C132.04 46.0001 132.16 46.6801 132.15 47.3401C132.14 48.0001 132 48.6201 131.75 49.1801C131.49 49.7501 131.12 50.2501 130.63 50.6901C130.14 51.1301 129.54 51.4801 128.83 51.7201C128.12 51.9601 127.44 52.0801 126.78 52.0401C126.12 52.0001 125.51 51.8401 124.96 51.5601C124.41 51.2801 123.92 50.8801 123.5 50.3701C123.08 49.8601 122.75 49.2601 122.5 48.5701C122.26 47.8801 122.14 47.2001 122.15 46.5401C122.16 45.8801 122.3 45.2701 122.55 44.7001C122.8 44.1301 123.18 43.6301 123.67 43.1901C124.16 42.7501 124.76 42.4101 125.47 42.1601ZM126.18 44.1901C125.76 44.3401 125.4 44.5401 125.1 44.7901C124.8 45.0401 124.56 45.3301 124.39 45.6601C124.22 45.9901 124.12 46.3501 124.1 46.7401C124.08 47.1301 124.14 47.5301 124.29 47.9501C124.44 48.3701 124.64 48.7201 124.9 49.0101C125.16 49.3001 125.46 49.5201 125.8 49.6701C126.14 49.8201 126.51 49.9001 126.9 49.9101C127.29 49.9201 127.7 49.8501 128.11 49.7001C128.52 49.5601 128.88 49.3601 129.18 49.1101C129.49 48.8601 129.72 48.5701 129.89 48.2301C130.06 47.9001 130.16 47.5401 130.18 47.1501C130.2 46.7601 130.14 46.3601 130 45.9401C129.85 45.5201 129.65 45.1701 129.39 44.8801C129.13 44.5901 128.83 44.3701 128.49 44.2201C128.15 44.0701 127.78 43.9901 127.39 43.9801C126.99 43.9801 126.59 44.0401 126.18 44.1901Z" fill="black"/>
<path d="M132.98 59.01L132.67 56.35L134.49 56.14L135.36 63.52L133.54 63.73L133.23 61.07L125.72 61.95L125.48 59.89L132.99 59.01H132.98Z" fill="black"/>
<path d="M130.83 65.0101C131.58 65.0401 132.26 65.1901 132.86 65.4601C133.46 65.7301 133.97 66.1001 134.38 66.5701C134.79 67.0401 135.1 67.5801 135.31 68.2101C135.52 68.8401 135.61 69.5201 135.58 70.2501C135.55 70.9801 135.41 71.6601 135.16 72.2701C134.91 72.8801 134.56 73.4001 134.12 73.8401C133.67 74.2801 133.14 74.6101 132.52 74.8401C131.9 75.0701 131.22 75.1701 130.46 75.1501C129.71 75.1201 129.03 74.9701 128.43 74.7001C127.83 74.4301 127.32 74.0601 126.91 73.5901C126.5 73.1201 126.19 72.5801 125.98 71.9501C125.77 71.3201 125.68 70.6401 125.71 69.9101C125.74 69.1801 125.88 68.5001 126.13 67.8901C126.38 67.2801 126.73 66.7601 127.18 66.3201C127.62 65.8801 128.16 65.5501 128.78 65.3201C129.4 65.0901 130.08 64.9901 130.84 65.0101H130.83ZM130.75 67.1601C130.31 67.1401 129.9 67.2001 129.53 67.3201C129.16 67.4401 128.83 67.6301 128.55 67.8801C128.27 68.1301 128.05 68.4301 127.89 68.7801C127.73 69.1301 127.64 69.5301 127.62 69.9701C127.6 70.4101 127.66 70.8101 127.8 71.1801C127.94 71.5501 128.14 71.8601 128.4 72.1201C128.66 72.3901 128.97 72.5901 129.33 72.7401C129.69 72.8901 130.09 72.9701 130.54 72.9901C130.97 73.0101 131.38 72.9501 131.75 72.8301C132.12 72.7101 132.45 72.5201 132.73 72.2701C133.01 72.0201 133.23 71.7201 133.39 71.3701C133.55 71.0201 133.64 70.6201 133.66 70.1801C133.68 69.7401 133.61 69.3401 133.48 68.9701C133.34 68.6101 133.14 68.2901 132.88 68.0301C132.62 67.7601 132.31 67.5601 131.94 67.4101C131.57 67.2601 131.17 67.1801 130.74 67.1601H130.75Z" fill="black"/>
<path d="M131.69 83.43L132.37 80.84L134.14 81.3L132.27 88.49L130.5 88.03L131.18 85.44L123.86 83.53L124.38 81.53L131.7 83.44L131.69 83.43Z" fill="black"/>
<path d="M131.62 90.4899L130.81 92.3999L127.59 91.0299L126.02 94.7299L129.24 96.0999L128.43 98.0099L119.78 94.3299L120.59 92.4299L124.33 94.0199L125.9 90.3199L122.16 88.7299L122.97 86.8199L131.62 90.4999V90.4899Z" fill="black"/>
<path d="M126.93 100.72L123.57 106.14L121.95 105.13L124.22 101.46L122.73 100.54L120.58 104L118.96 102.99L121.11 99.53L119.49 98.52L117.09 102.39L115.47 101.38L118.96 95.75L126.95 100.7L126.93 100.72Z" fill="black"/>
<path d="M119.05 112.2L116.82 114.4L110.97 111.56L110.95 111.58L113.71 117.47L111.49 119.66L104.89 112.97L106.36 111.51L111.42 116.64L111.44 116.62L108.13 109.76L109.25 108.65L116 112.11L116.02 112.09L110.96 106.96L112.43 105.5L119.03 112.19L119.05 112.2Z" fill="black"/>
<path d="M106.7 117.5C107.12 118.13 107.39 118.76 107.51 119.41C107.63 120.06 107.63 120.69 107.49 121.29C107.35 121.9 107.09 122.47 106.7 123C106.31 123.53 105.81 124 105.2 124.41C104.59 124.82 103.96 125.09 103.32 125.24C102.68 125.39 102.05 125.41 101.44 125.3C100.83 125.19 100.25 124.95 99.6999 124.58C99.1499 124.21 98.67 123.71 98.26 123.09C97.84 122.46 97.5699 121.83 97.4499 121.18C97.3299 120.53 97.33 119.9 97.47 119.3C97.61 118.69 97.87 118.12 98.26 117.59C98.65 117.06 99.15 116.59 99.76 116.18C100.37 115.77 101 115.5 101.64 115.35C102.28 115.2 102.91 115.18 103.52 115.29C104.13 115.4 104.71 115.64 105.26 116.01C105.81 116.38 106.29 116.88 106.7 117.51V117.5ZM104.91 118.69C104.67 118.32 104.39 118.02 104.07 117.79C103.75 117.56 103.41 117.4 103.05 117.32C102.69 117.24 102.31 117.23 101.93 117.3C101.55 117.37 101.17 117.53 100.8 117.78C100.43 118.02 100.14 118.31 99.9199 118.63C99.6999 118.95 99.56 119.3 99.5 119.67C99.44 120.04 99.45 120.41 99.54 120.79C99.63 121.17 99.79 121.55 100.04 121.92C100.28 122.28 100.56 122.58 100.88 122.81C101.2 123.04 101.54 123.2 101.9 123.29C102.26 123.37 102.63 123.38 103.02 123.31C103.4 123.24 103.78 123.08 104.14 122.84C104.51 122.59 104.8 122.31 105.02 121.99C105.24 121.67 105.38 121.32 105.44 120.95C105.5 120.58 105.49 120.21 105.4 119.82C105.31 119.43 105.14 119.06 104.9 118.7L104.91 118.69Z" fill="black"/>
<path d="M88.8498 126.11C88.6298 125.6 88.4998 125.1 88.4698 124.6C88.4398 124.1 88.4998 123.63 88.6698 123.18C88.8398 122.73 89.1098 122.32 89.4798 121.94C89.8498 121.56 90.3398 121.25 90.9298 120.99C91.5298 120.73 92.0998 120.59 92.6298 120.57C93.1598 120.55 93.6498 120.63 94.0898 120.82C94.5298 121 94.9198 121.28 95.2698 121.64C95.6198 122 95.8898 122.44 96.1198 122.95L98.4298 128.24L96.5298 129.07L94.2498 123.85C94.1298 123.58 93.9798 123.35 93.7998 123.16C93.6198 122.97 93.4098 122.83 93.1798 122.73C92.9498 122.63 92.7098 122.58 92.4598 122.58C92.2098 122.58 91.9498 122.64 91.6998 122.75C91.4498 122.86 91.2398 123.01 91.0698 123.19C90.8998 123.38 90.7698 123.58 90.6898 123.82C90.6098 124.05 90.5698 124.3 90.5898 124.57C90.5998 124.83 90.6698 125.1 90.7898 125.37L93.0698 130.59L91.1698 131.42L88.8598 126.13L88.8498 126.11Z" fill="black"/>
<path d="M88.1798 132.45L85.4498 133.12L80.0198 127.73H79.9898L81.5398 134.08L79.5298 134.57L77.2998 125.44L79.9298 124.8L85.4998 130.32H85.5298L83.9398 123.82L85.9498 123.33L88.1798 132.46V132.45Z" fill="black"/>
<path d="M74.5601 133.26L77.2301 133.03L77.3901 134.85L69.9901 135.5L69.8301 133.68L72.5001 133.45L71.8401 125.91L73.9001 125.73L74.5601 133.27V133.26Z" fill="black"/>
<path d="M64.8198 135.38L63.1098 135.29L59.5498 125.68L61.8798 125.81L62.5798 127.84L66.2198 128.04L67.1098 126.1L69.3898 126.23L64.8098 135.39L64.8198 135.38ZM64.1798 132.61L65.4798 129.76L63.1898 129.63L64.1798 132.61Z" fill="black"/>
<path d="M57.33 134.64L55.29 134.29L56.87 125.03L58.91 125.38L57.33 134.64Z" fill="black"/>
<path d="M52.55 133.87L49.86 133.06L47.91 125.66H47.88L46 131.91L44.02 131.32L46.72 122.32L49.31 123.1L51.32 130.68H51.35L53.27 124.28L55.25 124.87L52.55 133.87Z" fill="black"/>
<path d="M36.5398 125.76L38.8798 127.07L37.9898 128.67L31.5098 125.04L32.4098 123.44L34.7498 124.75L38.4498 118.15L40.2598 119.16L36.5598 125.76H36.5398Z" fill="black"/>
<path d="M32.9501 120.5C32.4901 121.09 31.9701 121.55 31.3901 121.88C30.8101 122.21 30.2201 122.4 29.6001 122.46C28.9801 122.52 28.3601 122.45 27.7301 122.25C27.1001 122.05 26.5001 121.72 25.9201 121.27C25.3401 120.82 24.8801 120.31 24.5401 119.75C24.1901 119.19 23.9801 118.6 23.8901 117.98C23.8001 117.36 23.8401 116.74 24.0201 116.1C24.2001 115.46 24.5201 114.85 24.9801 114.26C25.4401 113.67 25.9601 113.21 26.5401 112.88C27.1201 112.56 27.7101 112.36 28.3301 112.3C28.9501 112.24 29.5801 112.31 30.2001 112.51C30.8301 112.71 31.4301 113.04 32.0101 113.49C32.5901 113.94 33.0501 114.45 33.4001 115.01C33.7501 115.57 33.9601 116.16 34.0501 116.78C34.1401 117.4 34.1001 118.02 33.9201 118.66C33.7401 119.3 33.4201 119.91 32.9601 120.5H32.9501ZM31.2601 119.17C31.5301 118.82 31.7301 118.46 31.8501 118.09C31.9701 117.72 32.0101 117.34 31.9701 116.97C31.9301 116.6 31.8201 116.24 31.6301 115.91C31.4401 115.57 31.1701 115.26 30.8201 114.99C30.4701 114.72 30.1101 114.53 29.7401 114.43C29.3701 114.33 28.9901 114.3 28.6301 114.36C28.2601 114.41 27.9101 114.54 27.5801 114.75C27.2501 114.95 26.9401 115.23 26.6701 115.58C26.4001 115.92 26.2101 116.28 26.0901 116.66C25.9701 117.04 25.9301 117.41 25.9601 117.78C26.0001 118.15 26.1101 118.51 26.3001 118.85C26.4901 119.19 26.7601 119.5 27.1101 119.77C27.4601 120.04 27.8201 120.23 28.1901 120.33C28.5601 120.43 28.9401 120.46 29.3001 120.4C29.6701 120.35 30.0201 120.22 30.3601 120.01C30.7001 119.8 31.0001 119.53 31.2701 119.19L31.2601 119.17Z" fill="black"/>
<path d="M20.2798 116.09L17.9098 113.53C17.5798 113.17 17.2998 112.81 17.0698 112.43C16.8398 112.05 16.6998 111.67 16.6398 111.29C16.5798 110.91 16.6198 110.52 16.7598 110.13C16.8998 109.74 17.1798 109.36 17.5798 108.98C17.9798 108.61 18.3798 108.36 18.7698 108.24C19.1598 108.12 19.5498 108.1 19.9198 108.17C20.2898 108.24 20.6598 108.41 21.0098 108.66C21.3698 108.91 21.7098 109.21 22.0498 109.58L23.0798 110.69L25.7698 108.2L27.1798 109.72L20.2798 116.1V116.09ZM21.7998 111.87L20.8598 110.86C20.7298 110.72 20.5998 110.6 20.4598 110.5C20.3198 110.4 20.1698 110.32 20.0098 110.28C19.8498 110.24 19.6998 110.23 19.5298 110.28C19.3698 110.32 19.1998 110.41 19.0398 110.56C18.8698 110.72 18.7598 110.89 18.7298 111.07C18.6998 111.25 18.7098 111.43 18.7698 111.61C18.8298 111.79 18.9198 111.97 19.0498 112.14C19.1798 112.31 19.3098 112.47 19.4398 112.61L20.1598 113.39L21.7998 111.88V111.87Z" fill="black"/>
<path d="M11.69 106.24L10.6 104.26L15.15 100.04V100.02L8.91 101.21L7.98 99.5199L12.45 94.8299V94.8099L6.26 96.4099L5.25 94.5699L14.8 92.4399L15.69 94.0599L10.99 99.0099V99.0299L17.7 97.6999L18.56 99.2599L11.68 106.24H11.69Z" fill="black"/>
<path d="M4.79982 92.63L4.06982 90.69L12.8598 87.37L13.5898 89.31L4.79982 92.63Z" fill="black"/>
<path d="M4.48998 86.0199L5.18998 88.6099L3.41998 89.0899L1.47998 81.9199L3.24998 81.4399L3.94998 84.0299L11.25 82.0499L11.79 84.0499L4.48998 86.0299V86.0199Z" fill="black"/>
<path d="M1.0501 79.84L0.810098 77.78L4.2901 77.37L3.8201 73.38L0.340098 73.79L0.100098 71.73L9.4301 70.63L9.6701 72.69L5.6401 73.17L6.1101 77.16L10.1401 76.68L10.3801 78.74L1.0501 79.84Z" fill="black"/>
<path d="M0 64.0801L0.41 60.9801L6.77 59.6401V59.6101L0.98 56.6501L1.39 53.5601L10.7 54.8001L10.43 56.8501L3.29 55.9001V55.9301L10.11 59.3201L9.9 60.8901L2.44 62.3001V62.3301L9.58 63.2801L9.31 65.3301L0 64.0901L0 64.0801Z" fill="black"/>
<path d="M3.20996 47.47L3.73996 45.84L13.94 44.89L13.21 47.11L11.07 47.26L9.92996 50.73L11.58 52.1L10.87 54.27L3.20996 47.48V47.47ZM6.05996 47.57L8.47996 49.57L9.19996 47.39L6.06996 47.57H6.05996Z" fill="black"/>
<path d="M5.5 40.87L6.58 38.77L13.12 39.54V39.52L8.75 34.59L9.77 32.62L16.33 40.38L15.57 41.85L5.5 40.87Z" fill="black"/>
<path d="M10.9902 30.85L14.7202 25.67L16.2702 26.79L13.7502 30.29L15.1702 31.31L17.5502 28L19.1002 29.12L16.7202 32.43L18.2702 33.55L20.9302 29.86L22.4802 30.98L18.6102 36.35L10.9902 30.86V30.85Z" fill="black"/>
<path d="M16.5798 23.43L19.0898 20.8C19.4198 20.45 19.7698 20.16 20.1298 19.91C20.4898 19.66 20.8698 19.5 21.2498 19.42C21.6298 19.34 22.0198 19.35 22.4198 19.47C22.8198 19.59 23.2098 19.83 23.6098 20.21C24.0898 20.67 24.3798 21.18 24.4698 21.75C24.5598 22.32 24.4298 22.89 24.0598 23.45L28.5798 24.47L26.8598 26.26L22.7898 25.08L22.0798 25.82L24.7898 28.42L23.3598 29.92L16.5698 23.42L16.5798 23.43ZM20.8198 24.62L21.6598 23.74C21.7898 23.61 21.9198 23.46 22.0498 23.3C22.1798 23.14 22.2898 22.98 22.3498 22.81C22.4098 22.64 22.4398 22.47 22.4098 22.29C22.3798 22.11 22.2798 21.93 22.0898 21.76C21.9198 21.59 21.7498 21.5 21.5798 21.47C21.4098 21.44 21.2498 21.46 21.0898 21.51C20.9298 21.57 20.7798 21.66 20.6198 21.78C20.4698 21.9 20.3298 22.03 20.1998 22.16L19.2598 23.14L20.7998 24.62H20.8198Z" fill="black"/>
<path d="M23.1899 16.89L24.7699 15.55L30.8499 22.71L29.2699 24.05L23.1899 16.89Z" fill="black"/>
<path d="M33.2399 12.41C32.9299 12.32 32.6199 12.3 32.2999 12.36C31.9799 12.42 31.6599 12.56 31.3399 12.77C31.0199 12.99 30.7599 13.25 30.5699 13.56C30.3799 13.87 30.2599 14.21 30.2099 14.57C30.1599 14.93 30.1799 15.3 30.2799 15.69C30.3799 16.07 30.5499 16.45 30.7899 16.8C31.0399 17.17 31.3199 17.46 31.6399 17.69C31.9599 17.92 32.2899 18.07 32.6399 18.16C32.9899 18.25 33.3399 18.27 33.6899 18.21C34.0399 18.15 34.3699 18.02 34.6799 17.81C35.0299 17.57 35.2899 17.29 35.4599 16.96C35.6299 16.63 35.7199 16.27 35.7099 15.89L37.8599 15.98C37.8399 16.66 37.6599 17.29 37.2999 17.85C36.9399 18.41 36.4999 18.88 35.9699 19.24C35.3599 19.65 34.7399 19.94 34.0999 20.1C33.4599 20.26 32.8299 20.29 32.2199 20.19C31.6099 20.09 31.0199 19.86 30.4699 19.49C29.9199 19.12 29.4299 18.63 29.0099 18.01C28.5899 17.39 28.3099 16.75 28.1699 16.11C28.0299 15.47 28.0299 14.84 28.1699 14.23C28.3099 13.62 28.5599 13.05 28.9399 12.51C29.3199 11.97 29.8199 11.5 30.4299 11.08C30.6499 10.93 30.8899 10.8 31.1599 10.67C31.4299 10.55 31.6999 10.45 31.9899 10.38C32.2799 10.31 32.5799 10.28 32.8899 10.28C33.1999 10.28 33.5099 10.33 33.8299 10.43L33.2499 12.4L33.2399 12.41Z" fill="black"/>
<path d="M35.4399 8.24L37.3099 7.35L38.9799 10.88L40.6099 5.79L43.0599 4.63L41.1499 10.37L47.3999 12.97L44.7799 14.21L39.4199 11.81L41.3299 15.84L39.4599 16.73L35.4399 8.24Z" fill="black"/>
<path d="M50.1699 4.81995C49.9499 4.66995 49.6799 4.57995 49.3799 4.56995C49.0699 4.55995 48.7999 4.58995 48.5499 4.65995C48.4099 4.69995 48.2599 4.76995 48.1199 4.84995C47.9799 4.92995 47.8499 5.02995 47.7399 5.13995C47.6299 5.24995 47.5499 5.37995 47.4999 5.52995C47.4499 5.66995 47.4499 5.82995 47.4999 5.99995C47.5799 6.26995 47.7499 6.44995 47.9999 6.52995C48.2499 6.60995 48.5399 6.64995 48.8799 6.65995C49.2199 6.65995 49.5799 6.65995 49.9699 6.65995C50.3599 6.65995 50.7299 6.68995 51.0999 6.77995C51.4699 6.86995 51.7999 7.03995 52.0999 7.28995C52.3999 7.53995 52.6299 7.92995 52.7899 8.44995C52.9399 8.94995 52.9899 9.40995 52.9099 9.83995C52.8399 10.2699 52.6799 10.6599 52.4399 10.9999C52.1999 11.3399 51.8899 11.6399 51.4999 11.8899C51.1199 12.1399 50.6899 12.3299 50.2299 12.4799C49.6499 12.6599 49.0799 12.7399 48.5199 12.7099C47.9599 12.6799 47.4099 12.5399 46.8599 12.2799L47.7899 10.2999C48.0799 10.5099 48.3999 10.6399 48.7499 10.6899C49.0999 10.7399 49.4499 10.7199 49.7799 10.6199C49.9399 10.5699 50.0999 10.4999 50.2499 10.4099C50.3999 10.3199 50.5299 10.2199 50.6399 10.0999C50.7499 9.97995 50.8199 9.84995 50.8699 9.70995C50.9099 9.56995 50.9099 9.41995 50.8699 9.24995C50.7899 8.97995 50.6199 8.79995 50.3599 8.70995C50.0999 8.61995 49.7999 8.55995 49.4599 8.54995C49.1099 8.53995 48.7399 8.52995 48.3399 8.52995C47.9399 8.52995 47.5599 8.48995 47.1899 8.39995C46.8199 8.30995 46.4799 8.14995 46.1799 7.89995C45.8799 7.65995 45.6499 7.28995 45.4999 6.78995C45.3499 6.30995 45.3199 5.85995 45.3899 5.42995C45.4699 5.00995 45.6299 4.62995 45.8699 4.27995C46.1099 3.93995 46.4199 3.63995 46.7999 3.38995C47.1799 3.13995 47.5799 2.94995 48.0199 2.80995C48.5299 2.64995 49.0399 2.56995 49.5599 2.56995C50.0799 2.56995 50.5799 2.67995 51.0599 2.89995L50.1599 4.79995L50.1699 4.81995Z" fill="black"/>
</g>
<defs>
<clipPath id="clip0_1_120">
<rect width="135.59" height="135.5" fill="white"/>
</clipPath>
</defs>
</svg>
