<svg width="38" height="56" fill="none" xmlns="http://www.w3.org/2000/svg"><path d="M19.005 0L.815 31.5h36.37L19.005 0z" fill="url(#paint0_linear_16_85)"/><path d="M4.09 45.64a3.73 3.73 0 01-1.81-.44 3.198 3.198 0 01-1.27-1.29c-.313-.567-.47-1.26-.47-2.08 0-.613.09-1.157.27-1.63.187-.48.443-.887.77-1.22a3.313 3.313 0 011.13-.76 3.64 3.64 0 011.38-.26c.533 0 .987.1 1.36.3.38.193.69.41.93.65l-.79.94a2.905 2.905 0 00-.62-.44c-.22-.12-.497-.18-.83-.18-.413 0-.777.103-1.09.31-.313.2-.557.49-.73.87-.173.38-.26.837-.26 1.37 0 .54.08 1.003.24 1.39.167.38.413.673.74.88.327.207.73.31 1.21.31.18 0 .353-.023.52-.07.167-.053.3-.123.4-.21v-1.46H3.86v-1.21H6.5v3.34c-.253.247-.59.457-1.01.63-.42.173-.887.26-1.4.26zm6.928 0c-.653 0-1.23-.153-1.73-.46-.493-.313-.88-.76-1.16-1.34-.28-.58-.42-1.273-.42-2.08 0-.8.14-1.483.42-2.05.28-.567.667-1 1.16-1.3.5-.3 1.077-.45 1.73-.45.66 0 1.237.153 1.73.46.493.3.88.733 1.16 1.3.28.56.42 1.24.42 2.04 0 .807-.14 1.5-.42 2.08-.28.58-.667 1.027-1.16 1.34-.493.307-1.07.46-1.73.46zm0-1.28c.367 0 .683-.107.95-.32.273-.213.483-.513.63-.9.147-.393.22-.853.22-1.38 0-.527-.073-.977-.22-1.35-.147-.38-.357-.67-.63-.87a1.505 1.505 0 00-.95-.31c-.367 0-.687.103-.96.31-.267.2-.473.49-.62.87-.14.373-.21.823-.21 1.35 0 .527.07.987.21 1.38.147.387.353.687.62.9.273.213.593.32.96.32zm8.49 1.14v-6.17h-2.08v-1.24h5.65v1.24h-2.09v6.17h-1.48zm7.36.14c-.654 0-1.23-.153-1.73-.46-.494-.313-.88-.76-1.16-1.34-.28-.58-.42-1.273-.42-2.08 0-.8.14-1.483.42-2.05.28-.567.666-1 1.16-1.3.5-.3 1.076-.45 1.73-.45.66 0 1.236.153 1.73.46.493.3.88.733 1.16 1.3.28.56.42 1.24.42 2.04 0 .807-.14 1.5-.42 2.08-.28.58-.667 1.027-1.16 1.34-.494.307-1.07.46-1.73.46zm0-1.28c.366 0 .683-.107.95-.32.273-.213.483-.513.63-.9.146-.393.22-.853.22-1.38 0-.527-.074-.977-.22-1.35-.147-.38-.357-.67-.63-.87a1.505 1.505 0 00-.95-.31c-.367 0-.687.103-.96.31-.267.2-.474.49-.62.87-.14.373-.21.823-.21 1.35 0 .527.07.987.21 1.38.146.387.353.687.62.9.273.213.593.32.96.32zm4.755 1.14v-7.41h2.43a4.57 4.57 0 011.47.22c.44.147.787.39 1.04.73.26.333.39.793.39 1.38 0 .56-.13 1.023-.39 1.39-.253.36-.597.627-1.03.8-.427.173-.907.26-1.44.26h-.99v2.63h-1.48zm1.48-3.8h.89c.507 0 .883-.107 1.13-.32.253-.213.38-.533.38-.96 0-.427-.133-.723-.4-.89-.26-.173-.647-.26-1.16-.26h-.84v2.43z" fill="#ED1E79"/><defs><linearGradient id="paint0_linear_16_85" x1=".815" y1="15.75" x2="37.185" y2="15.75" gradientUnits="userSpaceOnUse"><stop stop-color="#FF00D1"/><stop offset="1" stop-color="#F7931E"/></linearGradient></defs></svg>