<svg width="161" height="54" viewBox="0 0 161 54" fill="none" xmlns="http://www.w3.org/2000/svg">
<g clip-path="url(#clip0_16_104)">
<path d="M34.1148 33.8694L33.2 32.8796L30.4987 35.396L32.3222 40.3665L27.6862 40.8661L27.3957 46.9226L24.1319 46.1283L19.0107 51.9397L13.8307 45.8584L11.5157 46.8295L10.4155 41.1174L6.45012 41.7783L7.7822 35.669L3.19562 33.3916L2.59912 34.6048L6.24304 36.4106L4.71006 43.4351L9.343 42.6657L10.5082 48.716L13.4443 47.4842L18.9952 54L24.6017 47.6331L28.6629 48.6229L28.975 42.0855L34.1828 41.5239L32.0719 35.7745L34.1148 33.8694Z" fill="white"/>
<path d="M7.23242 20.6052L9.68643 26.6556L15.9574 27.6577L15.7442 24.1268L7.23242 20.6052ZM10.6445 25.4424L9.68952 23.0843L14.4523 25.0545L14.5141 26.0598L10.6476 25.4424H10.6445Z" fill="white"/>
<path d="M22.2648 24.1269L21.5137 35.1664H16.4852L15.3354 36.3269L15.3694 38.8184L17.7895 40.649H20.2126L22.6326 38.8184V38.505L23.3898 27.4468L28.3225 26.6587L30.7765 20.6084L22.2679 24.1269H22.2648ZM19.7613 39.2993H18.2376L16.7046 38.1389L16.6892 36.876L17.0446 36.5161H20.9543L21.3097 36.876L21.2943 38.1357L19.7613 39.2962V39.2993ZM27.3582 25.4456L23.4825 26.0661L23.5505 25.0577L28.3163 23.0875L27.3613 25.4456H27.3582Z" fill="white"/>
<path d="M20.59 41.887H17.4128L14.5941 40.7576L11.6023 34.1767L10.3784 34.7352L13.5927 41.8125L17.1563 43.2367H20.8497L24.3669 41.8311L28.598 34.9493L28.2086 31.5797L26.8858 28.8679L25.6773 29.4605L26.8981 31.9676L27.2072 34.639L23.4551 40.7421L20.59 41.887Z" fill="white"/>
<path d="M37.7064 24.7536L34.7331 19.8606L34.217 19.5069L35.1009 17.7383L34.013 16.7206L35.7963 13.8847L32.0442 0.496438L24.8306 9.01344L18.9923 7.77545L13.1818 9.20581L5.9403 0L2.57145 13.6831L3.9808 16.7424L1.88532 17.9897L3.62847 20.4625L0 23.0068L3.67792 26.5811L0.0309069 30.4254L4.79056 33.2861L5.48288 32.1257L2.16657 30.1338L5.57251 26.5408L2.10785 23.1774L6.09174 20.385L5.32216 19.2773L4.73184 19.69L3.82627 18.4054L7.42692 16.2614L6.7377 15.0979L5.14599 16.0473L3.99317 13.5465L6.58934 3.00345L7.03131 3.56504L6.99731 3.55884L5.35925 12.0231L7.25075 14.2819L8.27995 13.41L6.8026 11.6477L8.10378 4.93025L12.6625 10.7262L19.0139 9.15927L24.2928 10.2794L23.9281 12.0914L25.2478 12.3582L25.7083 10.0622L29.9487 5.05746L31.0274 11.868L29.4511 14.2012L30.5638 14.9614L32.4398 12.1844L31.0954 3.70156L31.4354 3.30441L34.3375 13.6738L33.0116 15.7836L32.4893 15.2965L31.5714 16.2832L33.4474 18.0362L33.0982 18.7343L32.6531 18.4271L31.8897 19.541L33.7348 20.8131L35.7809 24.1765L31.6084 26.1654L34.9062 29.8049L30.9409 31.4835L31.4632 32.7308L37.1779 30.3106L33.8245 26.6028L37.7064 24.7536Z" fill="white"/>
<path d="M8.82085 34.549L9.44207 33.3482L8.4716 32.8425L9.49771 30.9963L7.44549 29.7211L8.54268 28.2784L7.47331 27.4592L5.47363 30.0841L7.69584 31.468L6.62337 33.401L8.82085 34.549Z" fill="white"/>
<path d="M61.9527 12.6218H54.9028L53.2895 26.9689L51.6854 12.7087L51.6762 12.6218H44.6201V42.6222H48.6967L48.6844 22.5071L50.9375 42.5384L50.9468 42.6222H55.6322L57.8977 22.4885V42.6222H61.9743L61.9527 12.7211V12.6218Z" fill="white"/>
<path d="M72.8753 12.625H66.6661L63.3467 42.6253H67.4511L68.0507 37.1925H71.4906L72.0902 42.6253H76.1916L72.8814 12.7119L72.8722 12.625H72.8753ZM70.9065 31.9271H68.6317L69.7691 21.6509L70.9065 31.9271Z" fill="white"/>
<path d="M82.1443 33.5995L79.8324 12.7088L79.8232 12.625H75.7188L79.0289 42.5385L79.0381 42.6222H85.2473L88.5667 12.625H84.4654L82.1443 33.5995Z" fill="white"/>
<path d="M90.1836 42.6222H100.822V37.36H94.2633V29.6869H99.2208V24.4185H94.2633V17.8872H100.822V12.625H90.1836V42.6222Z" fill="white"/>
<path d="M113.715 29.1129V12.625H103.08V42.6253H107.157V32.6376L110.733 34.5272V42.6253H114.809V32.0543L109.249 29.116H113.715V29.1129ZM109.639 17.8872V25.0173H107.16V17.8872H109.639Z" fill="white"/>
<path d="M148.532 12.6218L144.205 12.6249L140.839 22.1938V12.6249H136.76V42.6222H140.839V34.4837L141.872 31.5454L145.324 42.557L145.343 42.6222H149.62L144.134 25.1196L148.532 12.6218Z" fill="white"/>
<path d="M121.142 12.625H117.065V42.6253H121.142V12.625Z" fill="white"/>
<path d="M121.142 7.2417H117.065V11.3342H121.142V7.2417Z" fill="white"/>
<path d="M123.866 42.6222H134.504V32.3336H130.424V37.36H127.945V17.8872H130.427V22.9137H134.504V12.625H123.866V42.6222Z" fill="white"/>
<path d="M161 22.9137V12.625H150.365V25.1569L156.923 31.741V37.36H154.441V32.3336H150.365V42.6222H161V30.0438L154.441 23.4598V17.8872H156.923V22.9137H161Z" fill="white"/>
</g>
<defs>
<clipPath id="clip0_16_104">
<rect width="161" height="54" fill="white"/>
</clipPath>
</defs>
</svg>
