<svg width="38" height="56" viewBox="0 0 38 56" fill="none" xmlns="http://www.w3.org/2000/svg">
<path d="M19.0049 0L0.814941 31.5H37.1849L19.0049 0Z" fill="url(#paint0_linear_16_85)"/>
<path d="M4.09 45.64C3.42333 45.64 2.82 45.4933 2.28 45.2C1.74667 44.9067 1.32333 44.4767 1.01 43.91C0.696667 43.3433 0.54 42.65 0.54 41.83C0.54 41.2167 0.63 40.6733 0.81 40.2C0.996667 39.72 1.25333 39.3133 1.58 38.98C1.90667 38.6467 2.28333 38.3933 2.71 38.22C3.13667 38.0467 3.59667 37.96 4.09 37.96C4.62333 37.96 5.07667 38.06 5.45 38.26C5.83 38.4533 6.14 38.67 6.38 38.91L5.59 39.85C5.40333 39.6767 5.19667 39.53 4.97 39.41C4.75 39.29 4.47333 39.23 4.14 39.23C3.72667 39.23 3.36333 39.3333 3.05 39.54C2.73667 39.74 2.49333 40.03 2.32 40.41C2.14667 40.79 2.06 41.2467 2.06 41.78C2.06 42.32 2.14 42.7833 2.3 43.17C2.46667 43.55 2.71333 43.8433 3.04 44.05C3.36667 44.2567 3.77 44.36 4.25 44.36C4.43 44.36 4.60333 44.3367 4.77 44.29C4.93667 44.2367 5.07 44.1667 5.17 44.08V42.62H3.86V41.41H6.5V44.75C6.24667 44.9967 5.91 45.2067 5.49 45.38C5.07 45.5533 4.60333 45.64 4.09 45.64ZM11.018 45.64C10.3646 45.64 9.78797 45.4867 9.28797 45.18C8.79464 44.8667 8.40797 44.42 8.12797 43.84C7.84797 43.26 7.70797 42.5667 7.70797 41.76C7.70797 40.96 7.84797 40.2767 8.12797 39.71C8.40797 39.1433 8.79464 38.71 9.28797 38.41C9.78797 38.11 10.3646 37.96 11.018 37.96C11.678 37.96 12.2546 38.1133 12.748 38.42C13.2413 38.72 13.628 39.1533 13.908 39.72C14.188 40.28 14.328 40.96 14.328 41.76C14.328 42.5667 14.188 43.26 13.908 43.84C13.628 44.42 13.2413 44.8667 12.748 45.18C12.2546 45.4867 11.678 45.64 11.018 45.64ZM11.018 44.36C11.3846 44.36 11.7013 44.2533 11.968 44.04C12.2413 43.8267 12.4513 43.5267 12.598 43.14C12.7446 42.7467 12.818 42.2867 12.818 41.76C12.818 41.2333 12.7446 40.7833 12.598 40.41C12.4513 40.03 12.2413 39.74 11.968 39.54C11.7013 39.3333 11.3846 39.23 11.018 39.23C10.6513 39.23 10.3313 39.3333 10.058 39.54C9.7913 39.74 9.58464 40.03 9.43797 40.41C9.29797 40.7833 9.22797 41.2333 9.22797 41.76C9.22797 42.2867 9.29797 42.7467 9.43797 43.14C9.58464 43.5267 9.7913 43.8267 10.058 44.04C10.3313 44.2533 10.6513 44.36 11.018 44.36ZM19.5089 45.5V39.33H17.4289V38.09H23.0789V39.33H20.9889V45.5H19.5089ZM26.8676 45.64C26.2142 45.64 25.6376 45.4867 25.1376 45.18C24.6442 44.8667 24.2576 44.42 23.9776 43.84C23.6976 43.26 23.5576 42.5667 23.5576 41.76C23.5576 40.96 23.6976 40.2767 23.9776 39.71C24.2576 39.1433 24.6442 38.71 25.1376 38.41C25.6376 38.11 26.2142 37.96 26.8676 37.96C27.5276 37.96 28.1042 38.1133 28.5976 38.42C29.0909 38.72 29.4776 39.1533 29.7576 39.72C30.0376 40.28 30.1776 40.96 30.1776 41.76C30.1776 42.5667 30.0376 43.26 29.7576 43.84C29.4776 44.42 29.0909 44.8667 28.5976 45.18C28.1042 45.4867 27.5276 45.64 26.8676 45.64ZM26.8676 44.36C27.2342 44.36 27.5509 44.2533 27.8176 44.04C28.0909 43.8267 28.3009 43.5267 28.4476 43.14C28.5942 42.7467 28.6676 42.2867 28.6676 41.76C28.6676 41.2333 28.5942 40.7833 28.4476 40.41C28.3009 40.03 28.0909 39.74 27.8176 39.54C27.5509 39.3333 27.2342 39.23 26.8676 39.23C26.5009 39.23 26.1809 39.3333 25.9076 39.54C25.6409 39.74 25.4342 40.03 25.2876 40.41C25.1476 40.7833 25.0776 41.2333 25.0776 41.76C25.0776 42.2867 25.1476 42.7467 25.2876 43.14C25.4342 43.5267 25.6409 43.8267 25.9076 44.04C26.1809 44.2533 26.5009 44.36 26.8676 44.36ZM31.6229 45.5V38.09H34.0529C34.5996 38.09 35.0896 38.1633 35.5229 38.31C35.9629 38.4567 36.3096 38.7 36.5629 39.04C36.8229 39.3733 36.9529 39.8333 36.9529 40.42C36.9529 40.98 36.8229 41.4433 36.5629 41.81C36.3096 42.17 35.9662 42.4367 35.5329 42.61C35.1062 42.7833 34.6262 42.87 34.0929 42.87H33.1029V45.5H31.6229ZM33.1029 41.7H33.9929C34.4996 41.7 34.8762 41.5933 35.1229 41.38C35.3762 41.1667 35.5029 40.8467 35.5029 40.42C35.5029 39.9933 35.3696 39.6967 35.1029 39.53C34.8429 39.3567 34.4562 39.27 33.9429 39.27H33.1029V41.7Z" fill="#ED1E79"/>
<defs>
<linearGradient id="paint0_linear_16_85" x1="0.814941" y1="15.75" x2="37.1849" y2="15.75" gradientUnits="userSpaceOnUse">
<stop stop-color="#FF00D1"/>
<stop offset="1" stop-color="#F7931E"/>
</linearGradient>
</defs>
</svg>
