<svg width="49" height="71" viewBox="0 0 49 71" fill="none" xmlns="http://www.w3.org/2000/svg">
<path d="M43.8962 44.4049L42.719 43.1218L39.2433 46.3837L41.5896 52.8271L35.6243 53.4746L35.2505 61.3257L31.051 60.296L24.4613 67.8294L17.7961 59.9461L14.8175 61.205L13.4017 53.8004L8.2994 54.6571L10.0134 46.7377L4.11177 43.7855L3.34424 45.3581L8.03295 47.6989L6.06043 56.8049L12.0217 55.8074L13.521 63.6504L17.299 62.0537L24.4414 70.5L31.6554 62.2467L36.881 63.5298L37.2827 55.0553L43.9837 54.3273L41.2675 46.8744L43.8962 44.4049Z" fill="black"/>
<path d="M9.30615 27.2106L12.4638 35.0536L20.5328 36.3527L20.2584 31.7756L9.30615 27.2106ZM13.6966 33.481L12.4677 30.4242L18.5961 32.9782L18.6756 34.2814L13.7006 33.481H13.6966Z" fill="black"/>
<path d="M28.649 31.7756L27.6826 46.0861H21.2123L19.7329 47.5904L19.7767 50.8201L22.8905 53.1931H26.0084L29.1223 50.8201V50.4139L30.0966 36.0792L36.4436 35.0576L39.6013 27.2146L28.653 31.7756H28.649ZM25.4278 51.4435H23.4672L21.4947 49.9393L21.4748 48.3023L21.9321 47.8357H26.9628L27.4202 48.3023L27.4003 49.9352L25.4278 51.4395V51.4435ZM35.2029 33.485L30.2159 34.2894L30.3034 32.9822L36.4357 30.4282L35.2068 33.485H35.2029Z" fill="black"/>
<path d="M26.4935 54.7978H22.4053L18.7784 53.3338L14.9288 44.803L13.354 45.527L17.4899 54.7013L22.0752 56.5474H26.8276L31.3532 54.7254L36.7975 45.8045L36.2965 41.4365L34.5944 37.9213L33.0394 38.6895L34.6103 41.9393L35.008 45.4023L30.1801 53.3137L26.4935 54.7978Z" fill="black"/>
<path d="M48.5176 32.588L44.6919 26.2452L44.0277 25.7867L45.1651 23.4941L43.7653 22.1749L46.0599 18.4987L41.232 1.14353L31.95 12.1841L24.4378 10.5793L16.9613 12.4335L7.64351 0.5L3.30874 18.2373L5.12219 22.2031L2.42588 23.8199L4.66882 27.0255L0 30.3236L4.73245 34.957L0.0397685 39.9404L6.16412 43.6487L7.05494 42.1445L2.78777 39.5623L7.17027 34.9047L2.71221 30.5448L7.83838 26.925L6.84814 25.4891L6.08856 26.024L4.92334 24.3589L9.55638 21.5796L8.66954 20.0714L6.62146 21.3021L5.13809 18.0603L8.47865 4.39336L9.04734 5.12135L9.00359 5.11331L6.89586 16.0855L9.32969 19.0136L10.654 17.8834L8.75305 15.5988L10.4273 6.89106L16.2932 14.4043L24.4656 12.3731L31.2581 13.8251L30.7888 16.174L32.4869 16.5199L33.0795 13.5436L38.5357 7.05596L39.9236 15.8844L37.8954 18.909L39.3271 19.8944L41.741 16.2946L40.0111 5.29832L40.4486 4.7835L44.1828 18.2252L42.4768 20.9602L41.8047 20.3288L40.6235 21.6078L43.0375 23.8803L42.5881 24.7852L42.0154 24.387L41.0332 25.831L43.4073 27.48L46.04 31.8399L40.6713 34.4181L44.9146 39.1359L39.8123 41.3119L40.4844 42.9288L47.8376 39.7915L43.5227 34.9852L48.5176 32.588Z" fill="black"/>
<path d="M11.3499 45.2856L12.1492 43.7291L10.9005 43.0735L12.2208 40.6804L9.5802 39.0273L10.992 37.157L9.61599 36.0952L7.04297 39.4979L9.90233 41.2917L8.52236 43.7975L11.3499 45.2856Z" fill="black"/>
</svg>
